<?xml version="1.0" standalone="no"?>
<!DOCTYPE svg PUBLIC "-//W3C//DTD SVG 20010904//EN"
 "http://www.w3.org/TR/2001/REC-SVG-20010904/DTD/svg10.dtd">
<svg version="1.0" xmlns="http://www.w3.org/2000/svg"
 width="1056.000000pt" height="1056.000000pt" viewBox="0 0 1056.000000 1056.000000"
 preserveAspectRatio="xMidYMid meet">
<metadata>
Created by potrace 1.14, written by Peter Selinger 2001-2017
</metadata>
<g transform="translate(0.000000,1056.000000) scale(0.100000,-0.100000)"
fill="#000000" stroke="none">
<path d="M0 5280 l0 -5280 5280 0 5280 0 0 5280 0 5280 -5280 0 -5280 0 0
-5280z m3810 1537 c315 -60 561 -171 785 -353 262 -214 443 -514 514 -849 81
-384 32 -800 -131 -1120 -221 -433 -647 -741 -1143 -825 -38 -6 -88 -16 -110
-22 -25 -6 -344 -12 -827 -15 l-788 -5 -2 1601 c-2 881 -1 1606 1 1612 2 8
223 10 785 6 l781 -4 135 -26z m2390 21 c0 -7 0 -304 0 -660 0 -357 2 -659 6
-673 l6 -25 889 0 889 0 2 683 3 682 225 0 225 0 3 -1608 2 -1607 -227 2 -228
3 -3 708 -2 707 -889 0 c-813 0 -889 -1 -895 -16 -4 -9 -6 -323 -6 -698 0
-374 0 -687 0 -694 0 -10 -49 -12 -227 -10 l-228 3 -3 1595 c-1 877 0 1601 3
1608 3 9 59 12 230 12 173 0 225 -3 225 -12z"/>
<path d="M2572 5244 l3 -1189 500 1 c356 0 525 4 585 13 718 109 1128 690
1004 1420 -40 233 -156 448 -330 610 -170 158 -374 256 -644 307 -68 13 -188
17 -603 21 l-517 5 2 -1188z"/>
</g>
</svg>
